<svg width="354" height="64" viewBox="0 0 354 64" fill="none" xmlns="http://www.w3.org/2000/svg">
<path d="M230.816 18.016C230.592 21.056 230.48 23.776 230.48 26.176C230.48 27.68 230.528 28.896 230.624 29.824H229.52C228.752 25.888 227.696 23.12 226.352 21.52C225.04 19.92 223.232 19.12 220.928 19.12H219.824V46.528C219.824 47.872 219.952 48.848 220.208 49.456C220.496 50.064 220.976 50.48 221.648 50.704C222.352 50.896 223.456 51.008 224.96 51.04V52C220.928 51.904 217.888 51.856 215.84 51.856C213.824 51.856 210.896 51.904 207.056 52V51.04C208.56 51.008 209.648 50.896 210.32 50.704C211.024 50.48 211.504 50.064 211.76 49.456C212.048 48.848 212.192 47.872 212.192 46.528V19.12H211.136C209.6 19.12 208.288 19.456 207.2 20.128C206.144 20.8 205.232 21.92 204.464 23.488C203.696 25.024 203.04 27.136 202.496 29.824H201.392C201.488 28.896 201.536 27.68 201.536 26.176C201.536 23.776 201.424 21.056 201.2 18.016C204.112 18.112 209.056 18.16 216.032 18.16C223.008 18.16 227.936 18.112 230.816 18.016ZM248.527 18.976C247.439 19.04 246.655 19.168 246.174 19.36C245.695 19.552 245.359 19.92 245.167 20.464C245.007 21.008 244.927 21.888 244.927 23.104V46.912C244.927 48.128 245.007 49.008 245.167 49.552C245.359 50.096 245.695 50.464 246.174 50.656C246.655 50.848 247.439 50.976 248.527 51.04V52C246.799 51.904 244.383 51.856 241.279 51.856C237.855 51.856 235.327 51.904 233.695 52V51.04C234.751 50.976 235.519 50.848 235.999 50.656C236.511 50.464 236.847 50.096 237.007 49.552C237.199 49.008 237.295 48.128 237.295 46.912V23.104C237.295 21.888 237.199 21.008 237.007 20.464C236.847 19.92 236.511 19.552 235.999 19.36C235.519 19.168 234.751 19.04 233.695 18.976V18.016C235.327 18.112 237.855 18.16 241.279 18.16C244.383 18.16 246.799 18.112 248.527 18.016V18.976ZM293.021 18.976C291.933 19.04 291.149 19.168 290.669 19.36C290.189 19.552 289.853 19.92 289.661 20.464C289.501 21.008 289.421 21.888 289.421 23.104V46.912C289.421 48.128 289.501 49.008 289.661 49.552C289.853 50.096 290.189 50.464 290.669 50.656C291.181 50.848 291.965 50.976 293.021 51.04V52C291.261 51.904 288.749 51.856 285.485 51.856C282.061 51.856 279.533 51.904 277.901 52V51.04C279.053 50.976 279.885 50.848 280.397 50.656C280.941 50.464 281.309 50.096 281.501 49.552C281.693 49.008 281.789 48.128 281.789 46.912V21.808L270.221 52.048H269.453L256.493 21.136V44.128C256.493 46.016 256.589 47.408 256.781 48.304C256.973 49.168 257.389 49.808 258.029 50.224C258.669 50.608 259.709 50.88 261.149 51.04V52C259.901 51.904 258.173 51.856 255.965 51.856C254.205 51.856 252.813 51.904 251.789 52V51.04C252.845 50.88 253.613 50.608 254.093 50.224C254.605 49.84 254.941 49.232 255.101 48.4C255.293 47.568 255.389 46.336 255.389 44.704V23.104C255.389 21.888 255.293 21.008 255.101 20.464C254.941 19.92 254.605 19.552 254.093 19.36C253.613 19.168 252.845 19.04 251.789 18.976V18.016C252.813 18.112 254.205 18.16 255.965 18.16C258.909 18.16 261.437 18.112 263.549 18.016L273.245 41.392L282.077 18.16H285.485C288.749 18.16 291.261 18.112 293.021 18.016V18.976ZM322.53 44.704C322.53 47.648 322.642 50.08 322.866 52C320.69 51.904 317.026 51.856 311.874 51.856C304.898 51.856 299.682 51.904 296.226 52V51.04C297.282 50.976 298.05 50.848 298.53 50.656C299.042 50.464 299.378 50.096 299.538 49.552C299.73 49.008 299.826 48.128 299.826 46.912V23.104C299.826 21.888 299.73 21.008 299.538 20.464C299.378 19.92 299.042 19.552 298.53 19.36C298.05 19.168 297.282 19.04 296.226 18.976V18.016C299.682 18.112 304.898 18.16 311.874 18.16C316.578 18.16 319.922 18.112 321.906 18.016C321.682 20.672 321.57 23.04 321.57 25.12C321.57 26.528 321.618 27.616 321.714 28.384H320.61C320.13 24.96 319.266 22.56 318.018 21.184C316.77 19.808 315.01 19.12 312.738 19.12H310.77C309.778 19.12 309.058 19.2 308.61 19.36C308.162 19.52 307.858 19.84 307.698 20.32C307.538 20.768 307.458 21.504 307.458 22.528V34.432H308.994C310.69 34.432 311.97 33.808 312.834 32.56C313.73 31.312 314.354 29.824 314.706 28.096H315.81C315.714 29.44 315.666 30.944 315.666 32.608V34.912C315.666 36.544 315.762 38.816 315.954 41.728H314.85C314.178 37.504 312.226 35.392 308.994 35.392H307.458V47.488C307.458 48.512 307.538 49.264 307.698 49.744C307.858 50.192 308.162 50.496 308.61 50.656C309.058 50.816 309.778 50.896 310.77 50.896H313.122C315.394 50.896 317.218 50.128 318.594 48.592C320.002 47.024 320.994 44.384 321.57 40.672H322.674C322.578 41.728 322.53 43.072 322.53 44.704ZM338.648 17.392C340.312 17.392 341.64 17.552 342.632 17.872C343.624 18.192 344.632 18.656 345.656 19.264C346.008 19.456 346.312 19.616 346.568 19.744C346.856 19.872 347.096 19.936 347.288 19.936C347.576 19.936 347.8 19.776 347.96 19.456C348.12 19.104 348.248 18.56 348.344 17.824H349.448C349.288 19.968 349.208 23.616 349.208 28.768H348.104C347.976 27.04 347.576 25.392 346.904 23.824C346.264 22.256 345.336 20.992 344.12 20.032C342.936 19.04 341.544 18.544 339.944 18.544C338.376 18.544 337.096 18.992 336.104 19.888C335.144 20.752 334.664 21.936 334.664 23.44C334.664 24.56 334.904 25.536 335.384 26.368C335.864 27.2 336.536 27.968 337.4 28.672C338.264 29.344 339.592 30.272 341.384 31.456L342.92 32.512C344.808 33.76 346.296 34.848 347.384 35.776C348.472 36.704 349.352 37.792 350.024 39.04C350.728 40.256 351.08 41.68 351.08 43.312C351.08 45.36 350.552 47.088 349.496 48.496C348.44 49.872 347 50.912 345.176 51.616C343.384 52.32 341.384 52.672 339.176 52.672C337.384 52.672 335.896 52.512 334.712 52.192C333.528 51.872 332.44 51.44 331.448 50.896C330.744 50.448 330.2 50.224 329.816 50.224C329.528 50.224 329.304 50.4 329.144 50.752C328.984 51.072 328.856 51.6 328.76 52.336H327.656C327.784 50.32 327.848 46 327.848 39.376H328.952C329.176 42.96 329.976 45.872 331.352 48.112C332.728 50.32 334.84 51.424 337.688 51.424C339.416 51.424 340.84 50.96 341.96 50.032C343.08 49.104 343.64 47.776 343.64 46.048C343.64 44.256 343.064 42.72 341.912 41.44C340.76 40.16 338.936 38.72 336.44 37.12C334.52 35.872 332.984 34.784 331.832 33.856C330.68 32.928 329.736 31.84 329 30.592C328.264 29.312 327.896 27.84 327.896 26.176C327.896 24.256 328.376 22.64 329.336 21.328C330.328 19.984 331.64 18.992 333.272 18.352C334.904 17.712 336.696 17.392 338.648 17.392Z" fill="#231F20"/>
<path d="M94.816 18.976C93.728 19.04 92.944 19.168 92.464 19.36C91.984 19.552 91.648 19.92 91.456 20.464C91.296 21.008 91.216 21.888 91.216 23.104V46.912C91.216 48.128 91.296 49.008 91.456 49.552C91.648 50.096 91.984 50.464 92.464 50.656C92.944 50.848 93.728 50.976 94.816 51.04V52C93.248 51.904 90.816 51.856 87.52 51.856C84.288 51.856 81.776 51.904 79.984 52V51.04C81.04 50.976 81.808 50.848 82.288 50.656C82.8 50.464 83.136 50.096 83.296 49.552C83.488 49.008 83.584 48.128 83.584 46.912V35.392H70.864V46.912C70.864 48.128 70.944 49.008 71.104 49.552C71.296 50.096 71.632 50.464 72.112 50.656C72.592 50.848 73.376 50.976 74.464 51.04V52C72.736 51.904 70.32 51.856 67.216 51.856C63.792 51.856 61.264 51.904 59.632 52V51.04C60.688 50.976 61.456 50.848 61.936 50.656C62.448 50.464 62.784 50.096 62.944 49.552C63.136 49.008 63.232 48.128 63.232 46.912V23.104C63.232 21.888 63.136 21.008 62.944 20.464C62.784 19.92 62.448 19.552 61.936 19.36C61.456 19.168 60.688 19.04 59.632 18.976V18.016C61.264 18.112 63.792 18.16 67.216 18.16C70.32 18.16 72.736 18.112 74.464 18.016V18.976C73.376 19.04 72.592 19.168 72.112 19.36C71.632 19.552 71.296 19.92 71.104 20.464C70.944 21.008 70.864 21.888 70.864 23.104V34.432H83.584V23.104C83.584 21.888 83.488 21.008 83.296 20.464C83.136 19.92 82.8 19.552 82.288 19.36C81.808 19.168 81.04 19.04 79.984 18.976V18.016C81.776 18.112 84.288 18.16 87.52 18.16C90.816 18.16 93.248 18.112 94.816 18.016V18.976ZM124.327 44.704C124.327 47.648 124.439 50.08 124.663 52C122.487 51.904 118.823 51.856 113.671 51.856C106.695 51.856 101.479 51.904 98.0226 52V51.04C99.0786 50.976 99.8466 50.848 100.327 50.656C100.839 50.464 101.175 50.096 101.335 49.552C101.527 49.008 101.623 48.128 101.623 46.912V23.104C101.623 21.888 101.527 21.008 101.335 20.464C101.175 19.92 100.839 19.552 100.327 19.36C99.8466 19.168 99.0786 19.04 98.0226 18.976V18.016C101.479 18.112 106.695 18.16 113.671 18.16C118.375 18.16 121.719 18.112 123.703 18.016C123.479 20.672 123.367 23.04 123.367 25.12C123.367 26.528 123.415 27.616 123.511 28.384H122.407C121.927 24.96 121.063 22.56 119.815 21.184C118.567 19.808 116.807 19.12 114.535 19.12H112.567C111.575 19.12 110.855 19.2 110.407 19.36C109.959 19.52 109.655 19.84 109.495 20.32C109.335 20.768 109.255 21.504 109.255 22.528V34.432H110.791C112.487 34.432 113.767 33.808 114.631 32.56C115.527 31.312 116.151 29.824 116.503 28.096H117.607C117.511 29.44 117.463 30.944 117.463 32.608V34.912C117.463 36.544 117.559 38.816 117.751 41.728H116.647C115.975 37.504 114.023 35.392 110.791 35.392H109.255V47.488C109.255 48.512 109.335 49.264 109.495 49.744C109.655 50.192 109.959 50.496 110.407 50.656C110.855 50.816 111.575 50.896 112.567 50.896H114.919C117.191 50.896 119.015 50.128 120.391 48.592C121.799 47.024 122.791 44.384 123.367 40.672H124.471C124.375 41.728 124.327 43.072 124.327 44.704ZM160.989 49.888C160.125 50.88 159.197 51.584 158.205 52C157.213 52.448 156.013 52.672 154.605 52.672C152.749 52.672 151.277 52.288 150.189 51.52C149.133 50.72 148.445 49.376 148.125 47.488L147.261 42.688C146.845 40.352 146.333 38.64 145.725 37.552C145.149 36.432 144.173 35.872 142.797 35.872H139.677V46.912C139.677 48.128 139.757 49.008 139.917 49.552C140.109 50.096 140.445 50.464 140.924 50.656C141.405 50.848 142.189 50.976 143.277 51.04V52C141.549 51.904 139.133 51.856 136.029 51.856C132.605 51.856 130.077 51.904 128.445 52V51.04C129.501 50.976 130.269 50.848 130.749 50.656C131.261 50.464 131.597 50.096 131.757 49.552C131.949 49.008 132.045 48.128 132.045 46.912V23.104C132.045 21.888 131.949 21.008 131.757 20.464C131.597 19.92 131.261 19.552 130.749 19.36C130.269 19.168 129.501 19.04 128.445 18.976V18.016C130.077 18.112 132.509 18.16 135.741 18.16L141.069 18.112C141.709 18.08 142.445 18.064 143.277 18.064C147.693 18.064 151.005 18.784 153.213 20.224C155.453 21.664 156.573 23.728 156.573 26.416C156.573 28.688 155.741 30.688 154.077 32.416C152.413 34.144 149.661 35.232 145.821 35.68C148.701 35.936 150.845 36.56 152.253 37.552C153.661 38.544 154.573 40.032 154.989 42.016L156.093 46.96C156.349 48.24 156.637 49.136 156.957 49.648C157.309 50.16 157.789 50.416 158.397 50.416C158.781 50.384 159.101 50.288 159.357 50.128C159.645 49.968 159.965 49.696 160.317 49.312L160.989 49.888ZM142.653 18.976C141.789 18.976 141.149 19.088 140.733 19.312C140.349 19.536 140.077 19.936 139.917 20.512C139.757 21.088 139.677 21.952 139.677 23.104V34.912H141.741C144.365 34.912 146.157 34.224 147.117 32.848C148.109 31.44 148.605 29.472 148.605 26.944C148.605 24.32 148.141 22.336 147.213 20.992C146.285 19.648 144.765 18.976 142.653 18.976ZM187.983 44.704C187.983 47.648 188.095 50.08 188.319 52C186.143 51.904 182.479 51.856 177.327 51.856C170.351 51.856 165.135 51.904 161.679 52V51.04C162.735 50.976 163.503 50.848 163.983 50.656C164.495 50.464 164.831 50.096 164.991 49.552C165.183 49.008 165.279 48.128 165.279 46.912V23.104C165.279 21.888 165.183 21.008 164.991 20.464C164.831 19.92 164.495 19.552 163.983 19.36C163.503 19.168 162.735 19.04 161.679 18.976V18.016C165.135 18.112 170.351 18.16 177.327 18.16C182.031 18.16 185.375 18.112 187.359 18.016C187.135 20.672 187.023 23.04 187.023 25.12C187.023 26.528 187.071 27.616 187.167 28.384H186.063C185.583 24.96 184.719 22.56 183.471 21.184C182.223 19.808 180.463 19.12 178.191 19.12H176.223C175.231 19.12 174.511 19.2 174.063 19.36C173.615 19.52 173.311 19.84 173.151 20.32C172.991 20.768 172.911 21.504 172.911 22.528V34.432H174.447C176.143 34.432 177.423 33.808 178.287 32.56C179.183 31.312 179.807 29.824 180.159 28.096H181.263C181.167 29.44 181.119 30.944 181.119 32.608V34.912C181.119 36.544 181.215 38.816 181.407 41.728H180.303C179.631 37.504 177.679 35.392 174.447 35.392H172.911V47.488C172.911 48.512 172.991 49.264 173.151 49.744C173.311 50.192 173.615 50.496 174.063 50.656C174.511 50.816 175.231 50.896 176.223 50.896H178.575C180.847 50.896 182.671 50.128 184.047 48.592C185.455 47.024 186.447 44.384 187.023 40.672H188.127C188.031 41.728 187.983 43.072 187.983 44.704Z" fill="#231F20"/>
<path d="M4.356 48.94C4.284 49.228 4.248 49.492 4.248 49.732C4.248 50.212 4.392 50.572 4.68 50.812C4.968 51.052 5.34 51.172 5.796 51.172C6.396 51.172 6.948 50.92 7.452 50.416C7.98 49.888 8.496 48.94 9 47.572L9.504 46.168H10.188L9.432 48.436C8.928 49.924 8.268 50.98 7.452 51.604C6.66 52.204 5.676 52.504 4.5 52.504C3.42 52.504 2.616 52.24 2.088 51.712C1.56 51.184 1.296 50.452 1.296 49.516C1.296 48.892 1.404 48.208 1.62 47.464L5.436 34.216H2.196L2.376 33.496H5.616L7.2 28.024C8.496 27.976 9.576 27.808 10.44 27.52L8.748 33.496H13.5L13.392 34.216H8.532L4.356 48.94ZM29.5898 46.168L28.6898 48.796C27.8258 51.268 26.3738 52.504 24.3338 52.504C22.6538 52.504 21.8138 51.76 21.8138 50.272C21.8138 49.552 22.0058 48.616 22.3898 47.464L25.8098 37.168C26.0498 36.496 26.1698 35.896 26.1698 35.368C26.1698 34.552 25.7858 34.144 25.0178 34.144C24.1298 34.144 23.1698 34.708 22.1378 35.836C21.1298 36.94 20.1098 38.5 19.0778 40.516C18.0458 42.532 17.0858 44.872 16.1978 47.536L14.9018 52H11.7697L18.8978 27.988C19.0178 27.58 19.0778 27.256 19.0778 27.016C19.0778 26.536 18.8858 26.188 18.5018 25.972C18.1178 25.732 17.4818 25.612 16.5938 25.612L16.8098 24.856C19.3058 24.832 21.4658 24.34 23.2898 23.38L18.0698 41.236C19.3658 38.308 20.6618 36.208 21.9578 34.936C23.2538 33.64 24.6698 32.992 26.2058 32.992C28.1498 32.992 29.1218 33.904 29.1218 35.728C29.1218 36.496 28.9418 37.396 28.5818 38.428L25.0898 48.94C24.8978 49.516 24.8018 49.972 24.8018 50.308C24.8018 50.884 25.0898 51.172 25.6658 51.172C26.1458 51.172 26.6018 50.908 27.0338 50.38C27.4898 49.828 27.9578 48.868 28.4378 47.5L28.9058 46.168H29.5898ZM46.3705 35.368C46.3705 37.312 45.2785 39.016 43.0945 40.48C40.9105 41.944 38.4145 43.132 35.6065 44.044C35.3425 45.244 35.2105 46.408 35.2105 47.536C35.2105 49.84 36.0385 50.992 37.6945 50.992C39.7585 50.992 41.6065 49.792 43.2385 47.392L43.8145 47.68C43.0465 49 42.0025 50.14 40.6825 51.1C39.3865 52.036 38.0185 52.504 36.5785 52.504C35.0905 52.504 33.9265 52.072 33.0865 51.208C32.2465 50.344 31.8265 49.084 31.8265 47.428C31.8265 45.604 32.3545 43.552 33.4105 41.272C34.4905 38.968 35.9425 37.012 37.7665 35.404C39.5905 33.796 41.5705 32.992 43.7065 32.992C44.4745 32.992 45.1105 33.196 45.6145 33.604C46.1185 34.012 46.3705 34.6 46.3705 35.368ZM42.9145 33.676C42.1465 33.676 41.2825 34.132 40.3225 35.044C39.3865 35.932 38.4985 37.12 37.6585 38.608C36.8425 40.096 36.2185 41.68 35.7865 43.36C38.0665 42.568 39.6985 41.8 40.6825 41.056C41.5705 40.36 42.2545 39.52 42.7345 38.536C43.2385 37.528 43.4905 36.448 43.4905 35.296C43.4905 34.648 43.4425 34.216 43.3465 34C43.2505 33.784 43.1065 33.676 42.9145 33.676Z" fill="#231F20"/>
</svg>
