<svg width="832" height="117" viewBox="0 0 832 117" fill="none" xmlns="http://www.w3.org/2000/svg">
<path d="M26.184 86.768L32.2 92.784L36.552 90.48L38.344 92.912L20.68 102.128L7.24 90.48L2.376 93.552L0.456 90.992L9.032 85.488V54.256C9.032 53.616 9.032 52.976 8.904 52.336C8.776 51.696 8.52 51.184 8.136 50.544C7.624 49.776 6.728 49.136 5.832 48.752C4.936 48.24 3.912 48.112 2.888 48.112V46.32L23.752 25.328H26.184V40.048H41.416L35.4 47.088H26.184V86.768ZM67.809 86.768L71.905 90.864L75.873 88.176L78.177 90.992L62.305 102.128L49.121 90.864L44.257 93.936L41.953 90.992L50.657 85.488V27.248C50.657 26.608 50.657 25.968 50.401 25.328C50.273 24.688 50.017 24.048 49.633 23.536C49.121 22.768 48.353 22.128 47.457 21.744C46.433 21.232 45.537 20.848 44.513 20.464V18.672L65.377 3.952H67.809V51.44L83.681 36.464L97.249 47.728L102.369 43.632L104.545 46.448L99.041 50.928V84.336C99.041 87.792 99.041 91.248 98.401 94.704C97.761 98.16 96.609 101.488 94.817 104.432C92.129 108.656 88.289 111.984 83.681 114.032C78.945 116.208 73.569 116.976 68.449 116.208V113.136C71.137 112.496 73.825 111.088 75.873 109.168C78.177 106.864 79.713 104.048 80.737 100.976C82.401 95.984 82.529 90.736 82.529 85.488V54.896L74.849 48.496L67.809 55.152V86.768ZM109.706 93.808L107.402 90.992L113.546 86.128V52.336L144.138 36.464L157.066 56.048V56.688L129.418 73.84V79.344L144.778 89.84L158.858 78.832L160.778 81.904L134.41 103.28L115.338 89.2L109.706 93.808ZM129.418 70.768L142.986 62.192L131.85 46.192L129.418 47.6V70.768ZM202.588 23.152L200.156 21.872C200.924 19.44 201.948 17.264 203.356 15.088C205.02 12.4 207.068 10.096 209.756 8.432C211.676 7.15199 213.724 6.384 215.9 5.87199C218.204 5.488 220.38 5.35999 222.684 5.488C225.116 5.744 227.548 6.128 229.98 6.384C232.412 6.63999 234.972 6.63999 237.404 6.256C239.708 5.87199 242.012 5.104 244.06 3.824L246.492 4.976C245.98 5.488 245.468 6.128 245.084 6.63999C242.652 9.2 240.348 11.76 237.66 14.064C235.1 16.24 231.9 17.904 228.572 18.544C226.14 19.056 223.708 19.056 221.276 18.8C218.844 18.544 216.412 18.032 213.98 17.904C212.828 17.904 211.676 17.904 210.524 18.032C208.86 18.288 207.324 18.8 205.916 19.696C204.636 20.592 203.484 21.744 202.588 23.152ZM213.724 83.696C215.388 82.928 216.796 81.648 217.82 80.112C218.972 78.704 219.74 76.912 220.124 75.12C220.636 73.2 220.764 71.408 220.764 69.488C220.892 65.776 220.636 61.936 220.636 58.224C220.636 58.096 220.636 57.968 220.636 57.968H217.564C216.796 57.968 216.028 57.968 215.26 58.096C214.492 58.224 213.724 58.48 213.084 58.864C211.676 59.632 210.652 61.04 210.396 62.576C210.14 63.472 210.14 64.368 210.268 65.264H207.836C206.044 62.064 205.404 58.224 206.172 54.512C206.684 52.592 207.452 50.8 208.732 49.264C210.012 47.728 211.548 46.448 213.34 45.552C215.644 44.528 218.204 44.144 220.636 43.76V40.432C220.636 37.872 220.892 35.184 221.916 32.752C222.94 30.32 224.604 28.4 226.652 26.736C228.956 24.944 231.388 23.408 233.564 21.744C235.868 20.08 237.916 18.032 239.836 15.856L243.036 12.144H246.748C246.748 22.512 246.748 32.88 246.748 43.12H264.284V20.08L260.828 16.88L256.476 20.208L256.348 16.752L271.196 4.592L280.924 12.528L284.636 9.45599L286.94 12.272L282.076 16.24V85.616L285.788 89.584L289.756 86.256L291.548 88.048L274.652 102.512L262.236 91.12L259.036 93.552L257.628 91.632L264.284 86.512V58.096H246.748C246.748 68.72 246.748 79.344 246.748 89.968C247.388 90.224 248.028 90.608 248.796 90.992L235.996 103.152C232.028 100.464 227.292 98.8 222.556 98.544C215.388 98.288 208.092 101.232 203.1 106.48H199.26C203.228 98.16 210.652 91.632 219.484 88.432C227.036 85.872 235.484 85.872 243.036 88.432C243.036 64.24 243.036 40.176 243.036 15.984C242.268 16.88 241.5 17.776 240.86 18.672C239.836 20.208 238.94 21.872 238.428 23.664C237.276 27.12 237.276 30.96 237.148 34.544V44.528V63.088C237.148 65.008 237.148 66.928 236.892 68.72C236.636 70.512 236.124 72.304 235.356 74.096C233.82 77.424 231.004 80.112 227.932 82.16C223.708 84.848 218.716 86.384 213.724 86.896V83.696ZM296.831 93.808L294.527 90.992L300.671 86.128V52.336L331.263 36.464L344.191 56.048V56.688L316.543 73.84V79.344L331.903 89.84L345.983 78.832L347.903 81.904L321.535 103.28L302.463 89.2L296.831 93.808ZM316.543 70.768L330.111 62.192L318.975 46.192L316.543 47.6V70.768ZM390.356 86L392.788 88.816L373.588 102.64L359.508 91.632L355.284 94.704L353.364 92.272L361.428 86.768V52.976L357.076 47.472L352.212 50.544L350.42 48.112L367.572 36.464L376.916 46.576L385.876 36.336H387.156C388.308 38.256 390.484 39.536 392.66 39.536C393.94 39.536 395.092 39.28 396.116 38.768C397.14 38.256 398.036 37.36 398.676 36.336H402.516C402.26 38.768 401.876 41.2 401.236 43.504C400.596 45.552 399.828 47.472 398.804 49.264C397.652 50.928 396.116 52.464 394.196 53.36C392.66 54 390.996 54.384 389.332 54.256C387.796 54.256 386.132 53.744 384.596 53.104C382.292 52.208 380.244 50.8 378.324 49.008V86.768L383.444 90.736L390.356 86ZM403.081 93.808L400.777 90.992L406.921 86.128V52.336L437.513 36.464L450.441 56.048V56.688L422.793 73.84V79.344L438.153 89.84L452.233 78.832L454.153 81.904L427.785 103.28L408.713 89.2L403.081 93.808ZM422.793 70.768L436.361 62.192L425.225 46.192L422.793 47.6V70.768ZM510.427 34.544C507.099 33.136 504.283 30.32 502.875 26.864C501.467 23.408 501.339 19.44 502.619 15.984C503.643 13.168 505.435 10.608 507.739 8.688C510.043 6.768 512.859 5.35999 515.803 4.592C519.003 3.824 522.331 3.696 525.659 4.07999C528.987 4.592 532.187 5.488 535.387 6.51199C539.995 8.048 544.731 9.84 549.595 10.864C553.307 11.76 557.019 12.912 560.859 13.04C562.139 13.04 563.547 12.912 564.699 12.4C565.211 12.016 565.723 11.632 566.107 11.12C566.491 10.48 566.747 9.96799 566.875 9.2C566.875 8.56 566.747 7.79199 566.491 7.28C566.107 6.63999 565.595 5.99999 565.083 5.616C563.931 4.71999 562.651 4.336 561.243 3.952C559.835 3.696 558.427 3.43999 557.019 3.312V0.879997C558.683 0.751999 560.347 0.751999 561.883 0.879997C564.827 1.26399 567.899 2.032 570.459 3.43999C573.147 4.84799 575.451 7.02399 576.859 9.712C578.395 12.528 578.779 15.984 578.011 19.184C577.115 22.384 575.067 25.072 572.251 26.992C569.947 28.528 567.131 29.552 564.187 29.808C563.163 29.936 562.011 30.064 560.859 30.064V45.424L569.435 54L560.859 62.576V82.032C561.883 81.392 562.651 80.752 563.547 80.112C568.283 76.144 571.995 71.024 574.299 65.264H576.731C576.987 71.152 575.579 77.04 572.891 82.288C569.819 88.048 565.211 92.912 559.579 96.24C553.947 99.568 547.547 101.36 541.019 101.616C529.115 102 517.083 97.008 509.019 88.176C500.955 79.344 497.115 66.8 499.291 55.152C500.699 47.856 504.283 41.072 509.531 35.824C514.779 30.704 521.563 27.248 528.859 25.968L530.139 27.888C524.507 31.6 520.027 36.848 517.211 42.992L545.371 30.96V69.872L522.843 79.344C524.635 81.136 526.683 82.672 528.859 83.824C534.235 86.896 540.635 88.048 546.779 87.28C550.491 86.896 554.075 85.744 557.275 84.08V62.448L548.955 54L557.275 45.552V29.808C556.763 29.808 556.123 29.68 555.611 29.552C549.851 28.784 544.219 27.12 538.587 25.84C532.827 24.432 527.195 22.768 521.435 21.616C519.131 21.104 516.699 20.848 514.395 21.36C513.115 21.616 512.091 22.128 511.067 22.896C510.171 23.536 509.403 24.56 508.891 25.712C508.379 26.992 508.379 28.4 508.891 29.808C509.403 31.088 510.427 32.112 511.707 32.752L510.427 34.544ZM515.547 47.344C513.499 53.872 513.371 61.168 515.547 67.696C516.699 70.896 518.363 73.968 520.411 76.656L528.859 73.072V41.712L515.547 47.344ZM621.433 87.408L624.505 89.84L606.073 102.64L593.785 91.632L589.561 94.704L587.641 92.272L595.705 86.768V52.976L591.353 47.472L586.489 50.544L584.569 48.112L601.849 36.464L611.577 48.112V86.768L615.929 90.992L621.433 87.408ZM591.609 19.184L603.769 8.432L614.649 20.848L602.489 31.6L591.609 19.184ZM687.42 92.528L673.34 103.92L660.668 92.912L666.044 87.92V56.432L657.212 48.368L651.58 51.696V87.92L657.084 92.912L644.796 103.92L630.076 92.272L635.068 87.92V54L630.076 48.496L625.212 51.568L623.42 49.008L641.212 36.848L650.556 47.344L667.324 36.848L680.124 47.728L697.66 36.848L710.972 48.24L715.196 44.912L717.5 47.6L711.1 52.848V84.976L717.116 90.992L722.62 86.896V91.632L703.676 103.92L691.004 92.912L696.38 87.92V56.432L687.548 48.368L680.764 52.464V86.64L687.42 92.528ZM726.456 93.808L724.152 90.992L730.296 86.128V52.336L760.888 36.464L773.816 56.048V56.688L746.168 73.84V79.344L761.528 89.84L775.608 78.832L777.528 81.904L751.16 103.28L732.088 89.2L726.456 93.808ZM746.168 70.768L759.736 62.192L748.6 46.192L746.168 47.6V70.768ZM831.501 36.72C831.117 41.456 829.965 46.192 827.917 50.416C827.021 52.592 825.741 54.64 824.333 56.56C823.053 57.968 821.773 59.248 820.365 60.528L831.373 68.592V87.92L806.157 103.28C804.877 100.976 802.701 99.056 800.269 98.16C798.989 97.648 797.709 97.264 796.429 97.392C795.021 97.392 793.741 97.776 792.589 98.544C791.821 99.056 791.181 99.824 790.925 100.72C790.541 101.616 790.541 102.64 790.797 103.536C791.181 104.304 791.693 104.944 792.461 105.328L791.181 108.784C788.109 107.504 785.549 105.072 784.269 102C782.989 98.928 782.989 95.472 783.885 92.272C785.421 87.664 788.749 83.952 792.205 80.496C793.229 79.472 794.253 78.448 795.405 77.424L785.677 69.744V51.824L812.173 36.464C813.453 38.512 815.245 40.176 817.421 41.2C818.701 41.712 820.109 42.096 821.645 42.096C823.053 42.096 824.461 41.584 825.613 40.816C826.893 39.792 827.661 38.384 827.917 36.72V36.848C827.917 36.848 827.917 36.848 827.917 36.72H831.501ZM807.821 71.28L803.213 75.248C800.269 77.808 797.453 80.368 794.765 82.928C793.485 84.208 792.205 85.488 791.053 86.768C793.229 85.104 795.917 84.08 798.733 83.824C801.549 83.696 804.365 84.208 806.925 85.488C810.381 87.152 813.325 90.096 814.861 93.68V77.04L807.821 71.28ZM807.437 66.928L816.909 58.736C818.445 57.456 820.109 56.048 821.389 54.384C821.773 53.872 822.157 53.36 822.541 52.848C821.133 53.488 819.597 53.872 818.061 54.128C815.373 54.512 812.685 54.128 810.125 52.976C806.541 51.44 803.597 48.368 802.189 44.784V61.424L807.437 66.928Z" fill="black"/>
</svg>
